<svg xmlns="http://www.w3.org/2000/svg" xmlns:ev="http://www.w3.org/2001/xml-events" xmlns:xlink="http://www.w3.org/1999/xlink" baseProfile="full" height="200" version="1.1" width="1000"><defs><style type="text/css"><![CDATA[.axis {font-weight: bold}.tree, .axis {font-size: 14px; text-anchor:middle}.edge {stroke: black; fill: none}.node > .sym {fill: black; stroke: none}.tree text {dominant-baseline: middle}.tree .lab.lft {text-anchor: end}.tree .lab.rgt {text-anchor: start}.mut {fill: red; font-style: italic}]]></style></defs><g class="tree-sequence"><g class="background"><polygon fill="#F1F1F1" points="20,185 20,180 20,160 20,0 212.0,0 212.0,160 596.0,180 596.0,185"/><polygon fill="#F1F1F1" points="749.6,185 749.6,180 404.0,160 404.0,0 596.0,0 596.0,160 797.6,180 797.6,185"/><polygon fill="#F1F1F1" points="951.2,185 951.2,180 788.0,160 788.0,0 980.0,0 980.0,160 980.0,180 980.0,185"/></g><g class="trees"><g class="treebox t0" transform="translate(20 30)"><g class="tree t0"><g class="node n10 p0 root" transform="translate(119.036 94.1039)"><g class="a10 i1 leaf node n2 p0 sample" transform="translate(38.3929 15.8961)"><path class="edge" d="M 0 0 V -15.8961 H -38.3929"/><circle class="sym" cx="0" cy="0" r="3"/><text class="lab" transform="translate(0 12)">2</text></g><g class="a10 node n9 p0" transform="translate(-38.3929 4.29528)"><g class="a9 node n7 p0" transform="translate(33.7857 8.76515)"><g class="a7 i1 leaf node n3 p0 sample" transform="translate(18.4286 2.83563)"><path class="edge" d="M 0 0 V -2.83563 H -18.4286"/><circle class="sym" cx="0" cy="0" r="3"/><text class="lab" transform="translate(0 12)">3</text></g><g class="a7 node n6 p0" transform="translate(-18.4286 2.56915)"><g class="a6 i0 leaf node n1 p0 sample" transform="translate(-12.2857 0.266481)"><path class="edge" d="M 0 0 V -0.266481 H 12.2857"/><circle class="sym" cx="0" cy="0" r="3"/><text class="lab" transform="translate(0 12)">1</text></g><g class="a6 i2 leaf node n5 p0 sample" transform="translate(12.2857 0.266481)"><path class="edge" d="M 0 0 V -0.266481 H -12.2857"/><circle class="sym" cx="0" cy="0" r="3"/><text class="lab" transform="translate(0 12)">5</text></g><path class="edge" d="M 0 0 V -2.56915 H 18.4286"/><circle class="sym" cx="0" cy="0" r="3"/><text class="lab lft" transform="translate(-3 -6)">6</text></g><path class="edge" d="M 0 0 V -8.76515 H -33.7857"/><circle class="sym" cx="0" cy="0" r="3"/><text class="lab rgt" transform="translate(3 -6)">7</text></g><g class="a9 node n8 p0" transform="translate(-33.7857 4.58766)"><g class="a8 i0 leaf node n0 p0 sample" transform="translate(-12.2857 7.01312)"><path class="edge" d="M 0 0 V -7.01312 H 12.2857"/><circle class="sym" cx="0" cy="0" r="3"/><text class="lab" transform="translate(0 12)">0</text></g><g class="a8 i2 leaf node n4 p0 sample" transform="translate(12.2857 7.01312)"><path class="edge" d="M 0 0 V -7.01312 H -12.2857"/><circle class="sym" cx="0" cy="0" r="3"/><text class="lab" transform="translate(0 12)">4</text></g><path class="edge" d="M 0 0 V -4.58766 H 33.7857"/><circle class="sym" cx="0" cy="0" r="3"/><text class="lab lft" transform="translate(-3 -6)">8</text></g><path class="edge" d="M 0 0 V -4.29528 H 38.3929"/><circle class="sym" cx="0" cy="0" r="3"/><text class="lab lft" transform="translate(-3 -6)">9</text></g><circle class="sym" cx="0" cy="0" r="3"/><text class="lab" transform="translate(0 -10)">10</text></g></g></g><g class="treebox t1" transform="translate(212.0 30)"><g class="tree t1"><g class="node n11 p0 root" transform="translate(119.036 83.4342)"><g class="a11 i1 leaf node n2 p0 sample" transform="translate(38.3929 26.5658)"><path class="edge" d="M 0 0 V -26.5658 H -38.3929"/><circle class="sym" cx="0" cy="0" r="3"/><text class="lab" transform="translate(0 12)">2</text></g><g class="a11 node n9 p0" transform="translate(-38.3929 14.965)"><g class="a9 node n7 p0" transform="translate(33.7857 8.76515)"><g class="a7 i1 leaf node n3 p0 sample" transform="translate(18.4286 2.83563)"><path class="edge" d="M 0 0 V -2.83563 H -18.4286"/><circle class="sym" cx="0" cy="0" r="3"/><text class="lab" transform="translate(0 12)">3</text></g><g class="a7 node n6 p0" transform="translate(-18.4286 2.56915)"><g class="a6 i0 leaf node n1 p0 sample" transform="translate(-12.2857 0.266481)"><path class="edge" d="M 0 0 V -0.266481 H 12.2857"/><circle class="sym" cx="0" cy="0" r="3"/><text class="lab" transform="translate(0 12)">1</text></g><g class="a6 i2 leaf node n5 p0 sample" transform="translate(12.2857 0.266481)"><path class="edge" d="M 0 0 V -0.266481 H -12.2857"/><circle class="sym" cx="0" cy="0" r="3"/><text class="lab" transform="translate(0 12)">5</text></g><path class="edge" d="M 0 0 V -2.56915 H 18.4286"/><circle class="sym" cx="0" cy="0" r="3"/><text class="lab lft" transform="translate(-3 -6)">6</text></g><path class="edge" d="M 0 0 V -8.76515 H -33.7857"/><circle class="sym" cx="0" cy="0" r="3"/><text class="lab rgt" transform="translate(3 -6)">7</text></g><g class="a9 node n8 p0" transform="translate(-33.7857 4.58766)"><g class="a8 i0 leaf node n0 p0 sample" transform="translate(-12.2857 7.01312)"><path class="edge" d="M 0 0 V -7.01312 H 12.2857"/><circle class="sym" cx="0" cy="0" r="3"/><text class="lab" transform="translate(0 12)">0</text></g><g class="a8 i2 leaf node n4 p0 sample" transform="translate(12.2857 7.01312)"><path class="edge" d="M 0 0 V -7.01312 H -12.2857"/><circle class="sym" cx="0" cy="0" r="3"/><text class="lab" transform="translate(0 12)">4</text></g><path class="edge" d="M 0 0 V -4.58766 H 33.7857"/><circle class="sym" cx="0" cy="0" r="3"/><text class="lab lft" transform="translate(-3 -6)">8</text></g><path class="edge" d="M 0 0 V -14.965 H 38.3929"/><circle class="sym" cx="0" cy="0" r="3"/><text class="lab lft" transform="translate(-3 -6)">9</text></g><circle class="sym" cx="0" cy="0" r="3"/><text class="lab" transform="translate(0 -10)">11</text></g></g></g><g class="treebox t2" transform="translate(404.0 30)"><g class="tree t2"><g class="node n12 p0 root" transform="translate(119.036 77.125)"><g class="a12 i1 leaf node n2 p0 sample" transform="translate(38.3929 32.875)"><path class="edge" d="M 0 0 V -32.875 H -38.3929"/><circle class="sym" cx="0" cy="0" r="3"/><text class="lab" transform="translate(0 12)">2</text></g><g class="a12 node n9 p0" transform="translate(-38.3929 21.2742)"><g class="a9 node n7 p0" transform="translate(33.7857 8.76515)"><g class="a7 i1 leaf node n3 p0 sample" transform="translate(18.4286 2.83563)"><path class="edge" d="M 0 0 V -2.83563 H -18.4286"/><circle class="sym" cx="0" cy="0" r="3"/><text class="lab" transform="translate(0 12)">3</text></g><g class="a7 node n6 p0" transform="translate(-18.4286 2.56915)"><g class="a6 i0 leaf node n1 p0 sample" transform="translate(-12.2857 0.266481)"><path class="edge" d="M 0 0 V -0.266481 H 12.2857"/><circle class="sym" cx="0" cy="0" r="3"/><text class="lab" transform="translate(0 12)">1</text></g><g class="a6 i2 leaf node n5 p0 sample" transform="translate(12.2857 0.266481)"><path class="edge" d="M 0 0 V -0.266481 H -12.2857"/><circle class="sym" cx="0" cy="0" r="3"/><text class="lab" transform="translate(0 12)">5</text></g><path class="edge" d="M 0 0 V -2.56915 H 18.4286"/><circle class="sym" cx="0" cy="0" r="3"/><text class="lab lft" transform="translate(-3 -6)">6</text></g><path class="edge" d="M 0 0 V -8.76515 H -33.7857"/><circle class="sym" cx="0" cy="0" r="3"/><text class="lab rgt" transform="translate(3 -6)">7</text></g><g class="a9 node n8 p0" transform="translate(-33.7857 4.58766)"><g class="a8 i0 leaf node n0 p0 sample" transform="translate(-12.2857 7.01312)"><path class="edge" d="M 0 0 V -7.01312 H 12.2857"/><circle class="sym" cx="0" cy="0" r="3"/><text class="lab" transform="translate(0 12)">0</text></g><g class="a8 i2 leaf node n4 p0 sample" transform="translate(12.2857 7.01312)"><path class="edge" d="M 0 0 V -7.01312 H -12.2857"/><circle class="sym" cx="0" cy="0" r="3"/><text class="lab" transform="translate(0 12)">4</text></g><path class="edge" d="M 0 0 V -4.58766 H 33.7857"/><circle class="sym" cx="0" cy="0" r="3"/><text class="lab lft" transform="translate(-3 -6)">8</text></g><path class="edge" d="M 0 0 V -21.2742 H 38.3929"/><circle class="sym" cx="0" cy="0" r="3"/><text class="lab lft" transform="translate(-3 -6)">9</text></g><circle class="sym" cx="0" cy="0" r="3"/><text class="lab" transform="translate(0 -10)">12</text></g></g></g><g class="treebox t3" transform="translate(596.0 30)"><g class="tree t3"><g class="node n11 p0 root" transform="translate(119.036 83.4342)"><g class="a11 i1 leaf node n2 p0 sample" transform="translate(38.3929 26.5658)"><path class="edge" d="M 0 0 V -26.5658 H -38.3929"/><circle class="sym" cx="0" cy="0" r="3"/><text class="lab" transform="translate(0 12)">2</text></g><g class="a11 node n9 p0" transform="translate(-38.3929 14.965)"><g class="a9 node n7 p0" transform="translate(33.7857 8.76515)"><g class="a7 i1 leaf node n3 p0 sample" transform="translate(18.4286 2.83563)"><path class="edge" d="M 0 0 V -2.83563 H -18.4286"/><circle class="sym" cx="0" cy="0" r="3"/><text class="lab" transform="translate(0 12)">3</text></g><g class="a7 node n6 p0" transform="translate(-18.4286 2.56915)"><g class="a6 i0 leaf node n1 p0 sample" transform="translate(-12.2857 0.266481)"><path class="edge" d="M 0 0 V -0.266481 H 12.2857"/><circle class="sym" cx="0" cy="0" r="3"/><text class="lab" transform="translate(0 12)">1</text></g><g class="a6 i2 leaf node n5 p0 sample" transform="translate(12.2857 0.266481)"><path class="edge" d="M 0 0 V -0.266481 H -12.2857"/><circle class="sym" cx="0" cy="0" r="3"/><text class="lab" transform="translate(0 12)">5</text></g><path class="edge" d="M 0 0 V -2.56915 H 18.4286"/><circle class="sym" cx="0" cy="0" r="3"/><text class="lab lft" transform="translate(-3 -6)">6</text></g><path class="edge" d="M 0 0 V -8.76515 H -33.7857"/><circle class="sym" cx="0" cy="0" r="3"/><text class="lab rgt" transform="translate(3 -6)">7</text></g><g class="a9 node n8 p0" transform="translate(-33.7857 4.58766)"><g class="a8 i0 leaf node n0 p0 sample" transform="translate(-12.2857 7.01312)"><path class="edge" d="M 0 0 V -7.01312 H 12.2857"/><circle class="sym" cx="0" cy="0" r="3"/><text class="lab" transform="translate(0 12)">0</text></g><g class="a8 i2 leaf node n4 p0 sample" transform="translate(12.2857 7.01312)"><path class="edge" d="M 0 0 V -7.01312 H -12.2857"/><circle class="sym" cx="0" cy="0" r="3"/><text class="lab" transform="translate(0 12)">4</text></g><path class="edge" d="M 0 0 V -4.58766 H 33.7857"/><circle class="sym" cx="0" cy="0" r="3"/><text class="lab lft" transform="translate(-3 -6)">8</text></g><path class="edge" d="M 0 0 V -14.965 H 38.3929"/><circle class="sym" cx="0" cy="0" r="3"/><text class="lab lft" transform="translate(-3 -6)">9</text></g><circle class="sym" cx="0" cy="0" r="3"/><text class="lab" transform="translate(0 -10)">11</text></g></g></g><g class="treebox t4" transform="translate(788.0 30)"><g class="tree t4"><g class="node n13 p0 root" transform="translate(129.786 30.0)"><g class="a13 i1 leaf node n3 p0 sample" transform="translate(27.6429 80.0)"><path class="edge" d="M 0 0 V -80.0 H -27.6429"/><circle class="sym" cx="0" cy="0" r="3"/><text class="lab" transform="translate(0 12)">3</text></g><g class="a13 node n11 p0" transform="translate(-27.6429 53.4342)"><g class="a11 i1 leaf node n2 p0 sample" transform="translate(30.7143 26.5658)"><path class="edge" d="M 0 0 V -26.5658 H -30.7143"/><circle class="sym" cx="0" cy="0" r="3"/><text class="lab" transform="translate(0 12)">2</text></g><g class="a11 node n9 p0" transform="translate(-30.7143 14.965)"><g class="a9 node n8 p0" transform="translate(-24.5714 4.58766)"><g class="a8 i0 leaf node n0 p0 sample" transform="translate(-12.2857 7.01312)"><path class="edge" d="M 0 0 V -7.01312 H 12.2857"/><circle class="sym" cx="0" cy="0" r="3"/><text class="lab" transform="translate(0 12)">0</text></g><g class="a8 i2 leaf node n4 p0 sample" transform="translate(12.2857 7.01312)"><path class="edge" d="M 0 0 V -7.01312 H -12.2857"/><circle class="sym" cx="0" cy="0" r="3"/><text class="lab" transform="translate(0 12)">4</text></g><path class="edge" d="M 0 0 V -4.58766 H 24.5714"/><circle class="sym" cx="0" cy="0" r="3"/><text class="lab lft" transform="translate(-3 -6)">8</text></g><g class="a9 node n6 p0" transform="translate(24.5714 11.3343)"><g class="a6 i0 leaf node n1 p0 sample" transform="translate(-12.2857 0.266481)"><path class="edge" d="M 0 0 V -0.266481 H 12.2857"/><circle class="sym" cx="0" cy="0" r="3"/><text class="lab" transform="translate(0 12)">1</text></g><g class="a6 i2 leaf node n5 p0 sample" transform="translate(12.2857 0.266481)"><path class="edge" d="M 0 0 V -0.266481 H -12.2857"/><circle class="sym" cx="0" cy="0" r="3"/><text class="lab" transform="translate(0 12)">5</text></g><path class="edge" d="M 0 0 V -11.3343 H -24.5714"/><circle class="sym" cx="0" cy="0" r="3"/><text class="lab rgt" transform="translate(3 -6)">6</text></g><path class="edge" d="M 0 0 V -14.965 H 30.7143"/><circle class="sym" cx="0" cy="0" r="3"/><text class="lab lft" transform="translate(-3 -6)">9</text></g><path class="edge" d="M 0 0 V -53.4342 H 27.6429"/><circle class="sym" cx="0" cy="0" r="3"/><text class="lab lft" transform="translate(-3 -6)">11</text></g><circle class="sym" cx="0" cy="0" r="3"/><text class="lab" transform="translate(0 -10)">13</text></g></g></g></g><g class="axis"><line stroke="black" x1="20" x2="980" y1="180" y2="180"/><line stroke="black" x1="20" x2="20" y1="180" y2="185"/><g transform="translate(20, 200)"><text font-size="14" font-weight="bold" text-anchor="middle">0</text></g><line stroke="black" x1="596.0" x2="596.0" y1="180" y2="185"/><g transform="translate(596.0, 200)"><text font-size="14" font-weight="bold" text-anchor="middle">60</text></g><line stroke="black" x1="749.6" x2="749.6" y1="180" y2="185"/><g transform="translate(749.6, 200)"><text font-size="14" font-weight="bold" text-anchor="middle">76</text></g><line stroke="black" x1="797.6" x2="797.6" y1="180" y2="185"/><g transform="translate(797.6, 200)"><text font-size="14" font-weight="bold" text-anchor="middle">81</text></g><line stroke="black" x1="951.2" x2="951.2" y1="180" y2="185"/><g transform="translate(951.2, 200)"><text font-size="14" font-weight="bold" text-anchor="middle">97</text></g><line stroke="black" x1="980.0" x2="980.0" y1="180" y2="185"/><g transform="translate(980.0, 200)"><text font-size="14" font-weight="bold" text-anchor="middle">100</text></g></g></g></svg>