<svg xmlns="http://www.w3.org/2000/svg" xmlns:ev="http://www.w3.org/2001/xml-events" xmlns:xlink="http://www.w3.org/1999/xlink" baseProfile="full" height="200" version="1.1" width="800"><defs><style type="text/css"><![CDATA[.axis {font-weight: bold}.tree, .axis {font-size: 14px; text-anchor:middle}.edge {stroke: black; fill: none}.node > .sym {fill: black; stroke: none}.tree text {dominant-baseline: middle}.tree .lab.lft {text-anchor: end}.tree .lab.rgt {text-anchor: start}.mut {fill: red; font-style: italic}]]></style></defs><g class="tree-sequence"><g class="background"><polygon fill="#F1F1F1" points="20,185 20,180 20,160 20,0 210.0,0 210.0,160 210.0,180 210.0,185"/><polygon fill="#F1F1F1" points="324.0,185 324.0,180 400.0,160 400.0,0 590.0,0 590.0,160 400.0,180 400.0,185"/></g><g class="trees"><g class="treebox t0" transform="translate(20 30)"><g class="tree t0"><g class="node n14 p0 root" transform="translate(128.393 30.0)"><g class="a14 i0 leaf node n1 p0 sample" transform="translate(27.3214 80.0)"><path class="edge" d="M 0 0 V -80.0 H -27.3214"/><circle class="sym" cx="0" cy="0" r="3"/><text class="lab" transform="translate(0 12)">1</text></g><g class="a14 node n11 p0" transform="translate(-27.3214 26.8184)"><g class="a11 i1 leaf node n2 p0 sample" transform="translate(30.3571 53.1816)"><path class="edge" d="M 0 0 V -53.1816 H -30.3571"/><circle class="sym" cx="0" cy="0" r="3"/><text class="lab" transform="translate(0 12)">2</text></g><g class="a11 node n9 p0" transform="translate(-30.3571 22.423)"><g class="a9 node n7 p0" transform="translate(-24.2857 25.0636)"><g class="a7 i0 leaf node n0 p0 sample" transform="translate(-12.1429 5.69502)"><path class="edge" d="M 0 0 V -5.69502 H 12.1429"/><circle class="sym" cx="0" cy="0" r="3"/><text class="lab" transform="translate(0 12)">0</text></g><g class="a7 i1 leaf node n3 p0 sample" transform="translate(12.1429 5.69502)"><path class="edge" d="M 0 0 V -5.69502 H -12.1429"/><circle class="sym" cx="0" cy="0" r="3"/><text class="lab" transform="translate(0 12)">3</text></g><path class="edge" d="M 0 0 V -25.0636 H 24.2857"/><circle class="sym" cx="0" cy="0" r="3"/><text class="lab lft" transform="translate(-3 -6)">7</text></g><g class="a9 node n8 p0" transform="translate(24.2857 23.6819)"><g class="a8 i2 leaf node n4 p0 sample" transform="translate(-12.1429 7.07673)"><path class="edge" d="M 0 0 V -7.07673 H 12.1429"/><circle class="sym" cx="0" cy="0" r="3"/><text class="lab" transform="translate(0 12)">4</text></g><g class="a8 i2 leaf node n5 p0 sample" transform="translate(12.1429 7.07673)"><path class="edge" d="M 0 0 V -7.07673 H -12.1429"/><circle class="sym" cx="0" cy="0" r="3"/><text class="lab" transform="translate(0 12)">5</text></g><path class="edge" d="M 0 0 V -23.6819 H -24.2857"/><circle class="sym" cx="0" cy="0" r="3"/><text class="lab rgt" transform="translate(3 -6)">8</text></g><path class="edge" d="M 0 0 V -22.423 H 30.3571"/><circle class="sym" cx="0" cy="0" r="3"/><text class="lab lft" transform="translate(-3 -6)">9</text></g><path class="edge" d="M 0 0 V -26.8184 H 27.3214"/><circle class="sym" cx="0" cy="0" r="3"/><text class="lab lft" transform="translate(-3 -6)">11</text></g><circle class="sym" cx="0" cy="0" r="3"/><text class="lab" transform="translate(0 -10)">14</text></g></g></g><g class="treebox t1" transform="translate(210.0 30)"><g class="tree t1"><g class="node n14 p0 root" transform="translate(114.732 30.0)"><g class="a14 i0 leaf node n1 p0 sample" transform="translate(40.9821 80.0)"><path class="edge" d="M 0 0 V -80.0 H -40.9821"/><circle class="sym" cx="0" cy="0" r="3"/><text class="lab" transform="translate(0 12)">1</text></g><g class="a14 node n11 p0" transform="translate(-40.9821 26.8184)"><g class="a11 node n9 p0" transform="translate(27.3214 22.423)"><g class="a9 node n8 p0" transform="translate(18.2143 23.6819)"><g class="a8 i2 leaf node n4 p0 sample" transform="translate(-12.1429 7.07673)"><path class="edge" d="M 0 0 V -7.07673 H 12.1429"/><circle class="sym" cx="0" cy="0" r="3"/><text class="lab" transform="translate(0 12)">4</text></g><g class="a8 i2 leaf node n5 p0 sample" transform="translate(12.1429 7.07673)"><path class="edge" d="M 0 0 V -7.07673 H -12.1429"/><circle class="sym" cx="0" cy="0" r="3"/><text class="lab" transform="translate(0 12)">5</text></g><path class="edge" d="M 0 0 V -23.6819 H -18.2143"/><circle class="sym" cx="0" cy="0" r="3"/><text class="lab rgt" transform="translate(3 -6)">8</text></g><g class="a9 i1 leaf node n3 p0 sample" transform="translate(-18.2143 30.7586)"><path class="edge" d="M 0 0 V -30.7586 H 18.2143"/><circle class="sym" cx="0" cy="0" r="3"/><text class="lab" transform="translate(0 12)">3</text></g><path class="edge" d="M 0 0 V -22.423 H -27.3214"/><circle class="sym" cx="0" cy="0" r="3"/><text class="lab rgt" transform="translate(3 -6)">9</text></g><g class="a11 node n6 p0" transform="translate(-27.3214 50.4751)"><g class="a6 i0 leaf node n0 p0 sample" transform="translate(-12.1429 2.70648)"><path class="edge" d="M 0 0 V -2.70648 H 12.1429"/><circle class="sym" cx="0" cy="0" r="3"/><text class="lab" transform="translate(0 12)">0</text></g><g class="a6 i1 leaf node n2 p0 sample" transform="translate(12.1429 2.70648)"><path class="edge" d="M 0 0 V -2.70648 H -12.1429"/><circle class="sym" cx="0" cy="0" r="3"/><text class="lab" transform="translate(0 12)">2</text></g><path class="edge" d="M 0 0 V -50.4751 H 27.3214"/><circle class="sym" cx="0" cy="0" r="3"/><text class="lab lft" transform="translate(-3 -6)">6</text></g><path class="edge" d="M 0 0 V -26.8184 H 40.9821"/><circle class="sym" cx="0" cy="0" r="3"/><text class="lab lft" transform="translate(-3 -6)">11</text></g><circle class="sym" cx="0" cy="0" r="3"/><text class="lab" transform="translate(0 -10)">14</text></g></g></g><g class="treebox t2" transform="translate(400.0 30)"><g class="tree t2"><g class="node n14 p0 root" transform="translate(128.393 30.0)"><g class="a14 i0 leaf node n1 p0 sample" transform="translate(27.3214 80.0)"><path class="edge" d="M 0 0 V -80.0 H -27.3214"/><circle class="sym" cx="0" cy="0" r="3"/><text class="lab" transform="translate(0 12)">1</text></g><g class="a14 node n11 p0" transform="translate(-27.3214 26.8184)"><g class="a11 node n9 p0" transform="translate(-30.3571 22.423)"><g class="a9 node n8 p0" transform="translate(24.2857 23.6819)"><g class="a8 i2 leaf node n4 p0 sample" transform="translate(-12.1429 7.07673)"><path class="edge" d="M 0 0 V -7.07673 H 12.1429"/><circle class="sym" cx="0" cy="0" r="3"/><text class="lab" transform="translate(0 12)">4</text></g><g class="a8 i2 leaf node n5 p0 sample" transform="translate(12.1429 7.07673)"><path class="edge" d="M 0 0 V -7.07673 H -12.1429"/><circle class="sym" cx="0" cy="0" r="3"/><text class="lab" transform="translate(0 12)">5</text></g><path class="edge" d="M 0 0 V -23.6819 H -24.2857"/><circle class="sym" cx="0" cy="0" r="3"/><text class="lab rgt" transform="translate(3 -6)">8</text></g><g class="a9 node n7 p0" transform="translate(-24.2857 25.0636)"><g class="a7 i0 leaf node n0 p0 sample" transform="translate(-12.1429 5.69502)"><path class="edge" d="M 0 0 V -5.69502 H 12.1429"/><circle class="sym" cx="0" cy="0" r="3"/><text class="lab" transform="translate(0 12)">0</text></g><g class="a7 i1 leaf node n3 p0 sample" transform="translate(12.1429 5.69502)"><path class="edge" d="M 0 0 V -5.69502 H -12.1429"/><circle class="sym" cx="0" cy="0" r="3"/><text class="lab" transform="translate(0 12)">3</text></g><path class="edge" d="M 0 0 V -25.0636 H 24.2857"/><circle class="sym" cx="0" cy="0" r="3"/><text class="lab lft" transform="translate(-3 -6)">7</text></g><path class="edge" d="M 0 0 V -22.423 H 30.3571"/><circle class="sym" cx="0" cy="0" r="3"/><text class="lab lft" transform="translate(-3 -6)">9</text></g><g class="a11 i1 leaf node n2 p0 sample" transform="translate(30.3571 53.1816)"><path class="edge" d="M 0 0 V -53.1816 H -30.3571"/><circle class="sym" cx="0" cy="0" r="3"/><text class="lab" transform="translate(0 12)">2</text></g><path class="edge" d="M 0 0 V -26.8184 H 27.3214"/><circle class="sym" cx="0" cy="0" r="3"/><text class="lab lft" transform="translate(-3 -6)">11</text></g><circle class="sym" cx="0" cy="0" r="3"/><text class="lab" transform="translate(0 -10)">14</text></g></g></g><g class="treebox t3" transform="translate(590.0 30)"><g class="tree t3"><g class="node n13 p0 root" transform="translate(95.0 42.9515)"><g class="a13 node n10 p0" transform="translate(30.3571 14.2906)"><g class="a10 i1 leaf node n2 p0 sample" transform="translate(-18.2143 52.7579)"><path class="edge" d="M 0 0 V -52.7579 H 18.2143"/><circle class="sym" cx="0" cy="0" r="3"/><text class="lab" transform="translate(0 12)">2</text></g><g class="a10 node n8 p0" transform="translate(18.2143 45.6812)"><g class="a8 i2 leaf node n4 p0 sample" transform="translate(-12.1429 7.07673)"><path class="edge" d="M 0 0 V -7.07673 H 12.1429"/><circle class="sym" cx="0" cy="0" r="3"/><text class="lab" transform="translate(0 12)">4</text></g><g class="a8 i2 leaf node n5 p0 sample" transform="translate(12.1429 7.07673)"><path class="edge" d="M 0 0 V -7.07673 H -12.1429"/><circle class="sym" cx="0" cy="0" r="3"/><text class="lab" transform="translate(0 12)">5</text></g><path class="edge" d="M 0 0 V -45.6812 H -18.2143"/><circle class="sym" cx="0" cy="0" r="3"/><text class="lab rgt" transform="translate(3 -6)">8</text></g><path class="edge" d="M 0 0 V -14.2906 H -30.3571"/><circle class="sym" cx="0" cy="0" r="3"/><text class="lab rgt" transform="translate(3 -6)">10</text></g><g class="a13 node n12 p0" transform="translate(-30.3571 1.91502)"><g class="a12 i0 leaf node n1 p0 sample" transform="translate(18.2143 65.1334)"><path class="edge" d="M 0 0 V -65.1334 H -18.2143"/><circle class="sym" cx="0" cy="0" r="3"/><text class="lab" transform="translate(0 12)">1</text></g><g class="a12 node n7 p0" transform="translate(-18.2143 59.4384)"><g class="a7 i0 leaf node n0 p0 sample" transform="translate(-12.1429 5.69502)"><path class="edge" d="M 0 0 V -5.69502 H 12.1429"/><circle class="sym" cx="0" cy="0" r="3"/><text class="lab" transform="translate(0 12)">0</text></g><g class="a7 i1 leaf node n3 p0 sample" transform="translate(12.1429 5.69502)"><path class="edge" d="M 0 0 V -5.69502 H -12.1429"/><circle class="sym" cx="0" cy="0" r="3"/><text class="lab" transform="translate(0 12)">3</text></g><path class="edge" d="M 0 0 V -59.4384 H 18.2143"/><circle class="sym" cx="0" cy="0" r="3"/><text class="lab lft" transform="translate(-3 -6)">7</text></g><path class="edge" d="M 0 0 V -1.91502 H 30.3571"/><circle class="sym" cx="0" cy="0" r="3"/><text class="lab lft" transform="translate(-3 -6)">12</text></g><circle class="sym" cx="0" cy="0" r="3"/><text class="lab" transform="translate(0 -10)">13</text></g></g></g></g><g class="axis"><line stroke="black" x1="20" x2="780" y1="180" y2="180"/><line stroke="black" x1="20" x2="20" y1="180" y2="185"/><g transform="translate(20, 200)"><text font-size="14" font-weight="bold" text-anchor="middle">0</text></g><line stroke="black" x1="210.0" x2="210.0" y1="180" y2="185"/><g transform="translate(210.0, 200)"><text font-size="14" font-weight="bold" text-anchor="middle">5</text></g><line stroke="black" x1="324.0" x2="324.0" y1="180" y2="185"/><g transform="translate(324.0, 200)"><text font-size="14" font-weight="bold" text-anchor="middle">8</text></g><line stroke="black" x1="400.0" x2="400.0" y1="180" y2="185"/><g transform="translate(400.0, 200)"><text font-size="14" font-weight="bold" text-anchor="middle">10</text></g><line stroke="black" x1="780.0" x2="780.0" y1="180" y2="185"/><g transform="translate(780.0, 200)"><text font-size="14" font-weight="bold" text-anchor="middle">20</text></g></g></g></svg>