<svg xmlns="http://www.w3.org/2000/svg" xmlns:ev="http://www.w3.org/2001/xml-events" xmlns:xlink="http://www.w3.org/1999/xlink" baseProfile="full" height="200" version="1.1" width="600"><defs><style type="text/css"><![CDATA[.axis {font-weight: bold}.tree, .axis {font-size: 14px; text-anchor:middle}.edge {stroke: black; fill: none}.node > .sym {fill: black; stroke: none}.tree text {dominant-baseline: middle}.tree .lab.lft {text-anchor: end}.tree .lab.rgt {text-anchor: start}.mut {fill: red; font-style: italic}]]></style></defs><g class="tree-sequence"><g class="background"><polygon fill="#F1F1F1" points="20,185 20,180 20,160 20,0 206.667,0 206.667,160 300.0,180 300.0,185"/><polygon fill="#F1F1F1" points="356.0,185 356.0,180 393.333,160 393.333,0 580.0,0 580.0,160 580.0,180 580.0,185"/></g><g class="trees"><g class="treebox t0" transform="translate(20 30)"><g class="tree t0"><g class="node n11 p0 root" transform="translate(81.4286 30.0)"><g class="a11 node n6 p0" transform="translate(-35.7143 75.4517)"><g class="a6 i0 leaf node n0 p0 sample" transform="translate(-11.9048 4.54829)"><path class="edge" d="M 0 0 V -4.54829 H 11.9048"/><circle class="sym" cx="0" cy="0" r="3"/><text class="lab" transform="translate(0 12)">0</text></g><g class="a6 i2 leaf node n4 p0 sample" transform="translate(11.9048 4.54829)"><path class="edge" d="M 0 0 V -4.54829 H -11.9048"/><circle class="sym" cx="0" cy="0" r="3"/><text class="lab" transform="translate(0 12)">4</text></g><path class="edge" d="M 0 0 V -75.4517 H 35.7143"/><circle class="sym" cx="0" cy="0" r="3"/><text class="lab lft" transform="translate(-3 -6)">6</text></g><g class="a11 node n10 p0" transform="translate(35.7143 57.1143)"><g class="a10 node n8 p0" transform="translate(23.8095 13.3168)"><g class="a8 i1 leaf node n2 p0 sample" transform="translate(-11.9048 9.56892)"><path class="edge" d="M 0 0 V -9.56892 H 11.9048"/><circle class="sym" cx="0" cy="0" r="3"/><text class="lab" transform="translate(0 12)">2</text></g><g class="a8 i1 leaf node n3 p0 sample" transform="translate(11.9048 9.56892)"><path class="edge" d="M 0 0 V -9.56892 H -11.9048"/><circle class="sym" cx="0" cy="0" r="3"/><text class="lab" transform="translate(0 12)">3</text></g><path class="edge" d="M 0 0 V -13.3168 H -23.8095"/><circle class="sym" cx="0" cy="0" r="3"/><text class="lab rgt" transform="translate(3 -6)">8</text></g><g class="a10 node n9 p0" transform="translate(-23.8095 9.50587)"><g class="a9 i0 leaf node n1 p0 sample" transform="translate(-11.9048 13.3798)"><path class="edge" d="M 0 0 V -13.3798 H 11.9048"/><circle class="sym" cx="0" cy="0" r="3"/><text class="lab" transform="translate(0 12)">1</text></g><g class="a9 i2 leaf node n5 p0 sample" transform="translate(11.9048 13.3798)"><path class="edge" d="M 0 0 V -13.3798 H -11.9048"/><circle class="sym" cx="0" cy="0" r="3"/><text class="lab" transform="translate(0 12)">5</text></g><path class="edge" d="M 0 0 V -9.50587 H 23.8095"/><circle class="sym" cx="0" cy="0" r="3"/><text class="lab lft" transform="translate(-3 -6)">9</text></g><path class="edge" d="M 0 0 V -57.1143 H -35.7143"/><circle class="sym" cx="0" cy="0" r="3"/><text class="lab rgt" transform="translate(3 -6)">10</text></g><circle class="sym" cx="0" cy="0" r="3"/><text class="lab" transform="translate(0 -10)">11</text></g></g></g><g class="treebox t1" transform="translate(206.667 30)"><g class="tree t1"><g class="node n11 p0 root" transform="translate(99.2857 30.0)"><g class="a11 node n10 p0" transform="translate(35.7143 57.1143)"><g class="a10 node n8 p0" transform="translate(-17.8571 13.3168)"><g class="a8 i1 leaf node n2 p0 sample" transform="translate(-11.9048 9.56892)"><path class="edge" d="M 0 0 V -9.56892 H 11.9048"/><circle class="sym" cx="0" cy="0" r="3"/><text class="lab" transform="translate(0 12)">2</text></g><g class="a8 i1 leaf node n3 p0 sample" transform="translate(11.9048 9.56892)"><path class="edge" d="M 0 0 V -9.56892 H -11.9048"/><circle class="sym" cx="0" cy="0" r="3"/><text class="lab" transform="translate(0 12)">3</text></g><path class="edge" d="M 0 0 V -13.3168 H 17.8571"/><circle class="sym" cx="0" cy="0" r="3"/><text class="lab lft" transform="translate(-3 -6)">8</text></g><g class="a10 i2 leaf node n5 p0 sample" transform="translate(17.8571 22.8857)"><path class="edge" d="M 0 0 V -22.8857 H -17.8571"/><circle class="sym" cx="0" cy="0" r="3"/><text class="lab" transform="translate(0 12)">5</text></g><path class="edge" d="M 0 0 V -57.1143 H -35.7143"/><circle class="sym" cx="0" cy="0" r="3"/><text class="lab rgt" transform="translate(3 -6)">10</text></g><g class="a11 node n7 p0" transform="translate(-35.7143 70.9752)"><g class="a7 i0 leaf node n1 p0 sample" transform="translate(17.8571 9.02478)"><path class="edge" d="M 0 0 V -9.02478 H -17.8571"/><circle class="sym" cx="0" cy="0" r="3"/><text class="lab" transform="translate(0 12)">1</text></g><g class="a7 node n6 p0" transform="translate(-17.8571 4.47649)"><g class="a6 i0 leaf node n0 p0 sample" transform="translate(-11.9048 4.54829)"><path class="edge" d="M 0 0 V -4.54829 H 11.9048"/><circle class="sym" cx="0" cy="0" r="3"/><text class="lab" transform="translate(0 12)">0</text></g><g class="a6 i2 leaf node n4 p0 sample" transform="translate(11.9048 4.54829)"><path class="edge" d="M 0 0 V -4.54829 H -11.9048"/><circle class="sym" cx="0" cy="0" r="3"/><text class="lab" transform="translate(0 12)">4</text></g><path class="edge" d="M 0 0 V -4.47649 H 17.8571"/><circle class="sym" cx="0" cy="0" r="3"/><text class="lab lft" transform="translate(-3 -6)">6</text></g><path class="edge" d="M 0 0 V -70.9752 H 35.7143"/><circle class="sym" cx="0" cy="0" r="3"/><text class="lab lft" transform="translate(-3 -6)">7</text></g><circle class="sym" cx="0" cy="0" r="3"/><text class="lab" transform="translate(0 -10)">11</text></g></g></g><g class="treebox t2" transform="translate(393.333 30)"><g class="tree t2"><g class="node n11 p0 root" transform="translate(81.4286 30.0)"><g class="a11 node n10 p0" transform="translate(35.7143 57.1143)"><g class="a10 node n8 p0" transform="translate(23.8095 13.3168)"><g class="a8 i1 leaf node n2 p0 sample" transform="translate(-11.9048 9.56892)"><path class="edge" d="M 0 0 V -9.56892 H 11.9048"/><circle class="sym" cx="0" cy="0" r="3"/><text class="lab" transform="translate(0 12)">2</text></g><g class="a8 i1 leaf node n3 p0 sample" transform="translate(11.9048 9.56892)"><path class="edge" d="M 0 0 V -9.56892 H -11.9048"/><circle class="sym" cx="0" cy="0" r="3"/><text class="lab" transform="translate(0 12)">3</text></g><path class="edge" d="M 0 0 V -13.3168 H -23.8095"/><circle class="sym" cx="0" cy="0" r="3"/><text class="lab rgt" transform="translate(3 -6)">8</text></g><g class="a10 node n9 p0" transform="translate(-23.8095 9.50587)"><g class="a9 i0 leaf node n1 p0 sample" transform="translate(-11.9048 13.3798)"><path class="edge" d="M 0 0 V -13.3798 H 11.9048"/><circle class="sym" cx="0" cy="0" r="3"/><text class="lab" transform="translate(0 12)">1</text></g><g class="a9 i2 leaf node n5 p0 sample" transform="translate(11.9048 13.3798)"><path class="edge" d="M 0 0 V -13.3798 H -11.9048"/><circle class="sym" cx="0" cy="0" r="3"/><text class="lab" transform="translate(0 12)">5</text></g><path class="edge" d="M 0 0 V -9.50587 H 23.8095"/><circle class="sym" cx="0" cy="0" r="3"/><text class="lab lft" transform="translate(-3 -6)">9</text></g><path class="edge" d="M 0 0 V -57.1143 H -35.7143"/><circle class="sym" cx="0" cy="0" r="3"/><text class="lab rgt" transform="translate(3 -6)">10</text></g><g class="a11 node n6 p0" transform="translate(-35.7143 75.4517)"><g class="a6 i0 leaf node n0 p0 sample" transform="translate(-11.9048 4.54829)"><path class="edge" d="M 0 0 V -4.54829 H 11.9048"/><circle class="sym" cx="0" cy="0" r="3"/><text class="lab" transform="translate(0 12)">0</text></g><g class="a6 i2 leaf node n4 p0 sample" transform="translate(11.9048 4.54829)"><path class="edge" d="M 0 0 V -4.54829 H -11.9048"/><circle class="sym" cx="0" cy="0" r="3"/><text class="lab" transform="translate(0 12)">4</text></g><path class="edge" d="M 0 0 V -75.4517 H 35.7143"/><circle class="sym" cx="0" cy="0" r="3"/><text class="lab lft" transform="translate(-3 -6)">6</text></g><circle class="sym" cx="0" cy="0" r="3"/><text class="lab" transform="translate(0 -10)">11</text></g></g></g></g><g class="axis"><line stroke="black" x1="20" x2="580" y1="180" y2="180"/><line stroke="black" x1="20" x2="20" y1="180" y2="185"/><g transform="translate(20, 200)"><text font-size="14" font-weight="bold" text-anchor="middle">0</text></g><line stroke="black" x1="300.0" x2="300.0" y1="180" y2="185"/><g transform="translate(300.0, 200)"><text font-size="14" font-weight="bold" text-anchor="middle">5</text></g><line stroke="black" x1="356.0" x2="356.0" y1="180" y2="185"/><g transform="translate(356.0, 200)"><text font-size="14" font-weight="bold" text-anchor="middle">6</text></g><line stroke="black" x1="580.0" x2="580.0" y1="180" y2="185"/><g transform="translate(580.0, 200)"><text font-size="14" font-weight="bold" text-anchor="middle">10</text></g></g></g></svg>