<svg xmlns="http://www.w3.org/2000/svg" xmlns:ev="http://www.w3.org/2001/xml-events" xmlns:xlink="http://www.w3.org/1999/xlink" baseProfile="full" height="200" version="1.1" width="200"><defs><style type="text/css"><![CDATA[.axis {font-weight: bold}.tree, .axis {font-size: 14px; text-anchor:middle}.edge {stroke: black; fill: none}.node > .sym {fill: black; stroke: none}.tree text {dominant-baseline: middle}.tree .lab.lft {text-anchor: end}.tree .lab.rgt {text-anchor: start}.mut {fill: red; font-style: italic}]]></style></defs><g class="tree t0"><g class="node n10 p0 root" transform="translate(106.429 30.0)"><g class="a10 node n7 p0" transform="translate(38.5714 131.979)"><g class="a7 i1 leaf node n2 p0 sample" transform="translate(19.2857 8.02115)"><path class="edge" d="M 0 0 V -8.02115 H -19.2857"/><circle class="sym" cx="0" cy="0" r="3"/><text class="lab" transform="translate(0 12)">2</text></g><g class="a7 node n6 p0" transform="translate(-19.2857 4.79572)"><g class="a6 i0 leaf node n1 p0 sample" transform="translate(-12.8571 3.22544)"><path class="edge" d="M 0 0 V -3.22544 H 12.8571"/><circle class="sym" cx="0" cy="0" r="3"/><text class="lab" transform="translate(0 12)">1</text></g><g class="a6 i2 leaf node n4 p0 sample" transform="translate(12.8571 3.22544)"><path class="edge" d="M 0 0 V -3.22544 H -12.8571"/><circle class="sym" cx="0" cy="0" r="3"/><text class="lab" transform="translate(0 12)">4</text></g><path class="edge" d="M 0 0 V -4.79572 H 19.2857"/><circle class="sym" cx="0" cy="0" r="3"/><text class="lab lft" transform="translate(-3 -6)">6</text></g><path class="edge" d="M 0 0 V -131.979 H -38.5714"/><circle class="sym" cx="0" cy="0" r="3"/><text class="lab rgt" transform="translate(3 -6)">7</text></g><g class="a10 node n9 p0" transform="translate(-38.5714 94.3712)"><g class="a9 i2 leaf node n5 p0 sample" transform="translate(19.2857 45.6288)"><path class="edge" d="M 0 0 V -45.6288 H -19.2857"/><circle class="sym" cx="0" cy="0" r="3"/><text class="lab" transform="translate(0 12)">5</text></g><g class="a9 node n8 p0" transform="translate(-19.2857 29.8526)"><g class="a8 i0 leaf node n0 p0 sample" transform="translate(-12.8571 15.7763)"><path class="edge" d="M 0 0 V -15.7763 H 12.8571"/><circle class="sym" cx="0" cy="0" r="3"/><text class="lab" transform="translate(0 12)">0</text></g><g class="a8 i1 leaf node n3 p0 sample" transform="translate(12.8571 15.7763)"><path class="edge" d="M 0 0 V -15.7763 H -12.8571"/><circle class="sym" cx="0" cy="0" r="3"/><text class="lab" transform="translate(0 12)">3</text></g><path class="edge" d="M 0 0 V -29.8526 H 19.2857"/><circle class="sym" cx="0" cy="0" r="3"/><text class="lab lft" transform="translate(-3 -6)">8</text></g><path class="edge" d="M 0 0 V -94.3712 H 38.5714"/><circle class="sym" cx="0" cy="0" r="3"/><text class="lab lft" transform="translate(-3 -6)">9</text></g><circle class="sym" cx="0" cy="0" r="3"/><text class="lab" transform="translate(0 -10)">10</text></g></g></svg>