<svg xmlns="http://www.w3.org/2000/svg" xmlns:ev="http://www.w3.org/2001/xml-events" xmlns:xlink="http://www.w3.org/1999/xlink" baseProfile="full" height="200" version="1.1" width="800"><defs><style type="text/css"><![CDATA[.axis {font-weight: bold}.tree, .axis {font-size: 14px; text-anchor:middle}.edge {stroke: black; fill: none}.node > .sym {fill: black; stroke: none}.tree text {dominant-baseline: middle}.tree .lab.lft {text-anchor: end}.tree .lab.rgt {text-anchor: start}.mut {fill: red; font-style: italic}]]></style></defs><g class="tree-sequence"><g class="background"><polygon fill="#F1F1F1" points="20,185 20,180 20,160 20,0 210.0,0 210.0,160 41.432,180 41.432,185"/><polygon fill="#F1F1F1" points="138.864,185 138.864,180 400.0,160 400.0,0 590.0,0 590.0,160 628.152,180 628.152,185"/></g><g class="trees"><g class="treebox t0" transform="translate(20 30)"><g class="tree t0"><g class="node n13 p0 root" transform="translate(123.839 30.0)"><g class="a13 i1 leaf node n3 p0 sample" transform="translate(31.875 80.0)"><path class="edge" d="M 0 0 V -80.0 H -31.875"/><circle class="sym" cx="0" cy="0" r="3"/><text class="lab" transform="translate(0 12)">3</text></g><g class="a13 node n10 p0" transform="translate(-31.875 66.8389)"><g class="a10 node n8 p0" transform="translate(27.3214 10.2137)"><g class="a8 i0 leaf node n1 p0 sample" transform="translate(-12.1429 2.94735)"><path class="edge" d="M 0 0 V -2.94735 H 12.1429"/><circle class="sym" cx="0" cy="0" r="3"/><text class="lab" transform="translate(0 12)">1</text></g><g class="a8 i2 leaf node n5 p0 sample" transform="translate(12.1429 2.94735)"><path class="edge" d="M 0 0 V -2.94735 H -12.1429"/><circle class="sym" cx="0" cy="0" r="3"/><text class="lab" transform="translate(0 12)">5</text></g><path class="edge" d="M 0 0 V -10.2137 H -27.3214"/><circle class="sym" cx="0" cy="0" r="3"/><text class="lab rgt" transform="translate(3 -6)">8</text></g><g class="a10 node n9 p0" transform="translate(-27.3214 9.71179)"><g class="a9 i2 leaf node n4 p0 sample" transform="translate(18.2143 3.4493)"><path class="edge" d="M 0 0 V -3.4493 H -18.2143"/><circle class="sym" cx="0" cy="0" r="3"/><text class="lab" transform="translate(0 12)">4</text></g><g class="a9 node n6 p0" transform="translate(-18.2143 2.60093)"><g class="a6 i0 leaf node n0 p0 sample" transform="translate(-12.1429 0.848363)"><path class="edge" d="M 0 0 V -0.848363 H 12.1429"/><circle class="sym" cx="0" cy="0" r="3"/><text class="lab" transform="translate(0 12)">0</text></g><g class="a6 i1 leaf node n2 p0 sample" transform="translate(12.1429 0.848363)"><path class="edge" d="M 0 0 V -0.848363 H -12.1429"/><circle class="sym" cx="0" cy="0" r="3"/><text class="lab" transform="translate(0 12)">2</text></g><path class="edge" d="M 0 0 V -2.60093 H 18.2143"/><circle class="sym" cx="0" cy="0" r="3"/><text class="lab lft" transform="translate(-3 -6)">6</text></g><path class="edge" d="M 0 0 V -9.71179 H 27.3214"/><circle class="sym" cx="0" cy="0" r="3"/><text class="lab lft" transform="translate(-3 -6)">9</text></g><path class="edge" d="M 0 0 V -66.8389 H 31.875"/><circle class="sym" cx="0" cy="0" r="3"/><text class="lab lft" transform="translate(-3 -6)">10</text></g><circle class="sym" cx="0" cy="0" r="3"/><text class="lab" transform="translate(0 -10)">13</text></g></g></g><g class="treebox t1" transform="translate(210.0 30)"><g class="tree t1"><g class="node n12 p0 root" transform="translate(123.839 50.4646)"><g class="a12 i1 leaf node n3 p0 sample" transform="translate(31.875 59.5354)"><path class="edge" d="M 0 0 V -59.5354 H -31.875"/><circle class="sym" cx="0" cy="0" r="3"/><text class="lab" transform="translate(0 12)">3</text></g><g class="a12 node n10 p0" transform="translate(-31.875 46.3743)"><g class="a10 node n8 p0" transform="translate(27.3214 10.2137)"><g class="a8 i0 leaf node n1 p0 sample" transform="translate(-12.1429 2.94735)"><path class="edge" d="M 0 0 V -2.94735 H 12.1429"/><circle class="sym" cx="0" cy="0" r="3"/><text class="lab" transform="translate(0 12)">1</text></g><g class="a8 i2 leaf node n5 p0 sample" transform="translate(12.1429 2.94735)"><path class="edge" d="M 0 0 V -2.94735 H -12.1429"/><circle class="sym" cx="0" cy="0" r="3"/><text class="lab" transform="translate(0 12)">5</text></g><path class="edge" d="M 0 0 V -10.2137 H -27.3214"/><circle class="sym" cx="0" cy="0" r="3"/><text class="lab rgt" transform="translate(3 -6)">8</text></g><g class="a10 node n9 p0" transform="translate(-27.3214 9.71179)"><g class="a9 i2 leaf node n4 p0 sample" transform="translate(18.2143 3.4493)"><path class="edge" d="M 0 0 V -3.4493 H -18.2143"/><circle class="sym" cx="0" cy="0" r="3"/><text class="lab" transform="translate(0 12)">4</text></g><g class="a9 node n6 p0" transform="translate(-18.2143 2.60093)"><g class="a6 i0 leaf node n0 p0 sample" transform="translate(-12.1429 0.848363)"><path class="edge" d="M 0 0 V -0.848363 H 12.1429"/><circle class="sym" cx="0" cy="0" r="3"/><text class="lab" transform="translate(0 12)">0</text></g><g class="a6 i1 leaf node n2 p0 sample" transform="translate(12.1429 0.848363)"><path class="edge" d="M 0 0 V -0.848363 H -12.1429"/><circle class="sym" cx="0" cy="0" r="3"/><text class="lab" transform="translate(0 12)">2</text></g><path class="edge" d="M 0 0 V -2.60093 H 18.2143"/><circle class="sym" cx="0" cy="0" r="3"/><text class="lab lft" transform="translate(-3 -6)">6</text></g><path class="edge" d="M 0 0 V -9.71179 H 27.3214"/><circle class="sym" cx="0" cy="0" r="3"/><text class="lab lft" transform="translate(-3 -6)">9</text></g><path class="edge" d="M 0 0 V -46.3743 H 31.875"/><circle class="sym" cx="0" cy="0" r="3"/><text class="lab lft" transform="translate(-3 -6)">10</text></g><circle class="sym" cx="0" cy="0" r="3"/><text class="lab" transform="translate(0 -10)">12</text></g></g></g><g class="treebox t2" transform="translate(400.0 30)"><g class="tree t2"><g class="node n11 p0 root" transform="translate(123.839 83.7207)"><g class="a11 i1 leaf node n3 p0 sample" transform="translate(31.875 26.2793)"><path class="edge" d="M 0 0 V -26.2793 H -31.875"/><circle class="sym" cx="0" cy="0" r="3"/><text class="lab" transform="translate(0 12)">3</text></g><g class="a11 node n10 p0" transform="translate(-31.875 13.1182)"><g class="a10 node n8 p0" transform="translate(27.3214 10.2137)"><g class="a8 i0 leaf node n1 p0 sample" transform="translate(-12.1429 2.94735)"><path class="edge" d="M 0 0 V -2.94735 H 12.1429"/><circle class="sym" cx="0" cy="0" r="3"/><text class="lab" transform="translate(0 12)">1</text></g><g class="a8 i2 leaf node n5 p0 sample" transform="translate(12.1429 2.94735)"><path class="edge" d="M 0 0 V -2.94735 H -12.1429"/><circle class="sym" cx="0" cy="0" r="3"/><text class="lab" transform="translate(0 12)">5</text></g><path class="edge" d="M 0 0 V -10.2137 H -27.3214"/><circle class="sym" cx="0" cy="0" r="3"/><text class="lab rgt" transform="translate(3 -6)">8</text></g><g class="a10 node n9 p0" transform="translate(-27.3214 9.71179)"><g class="a9 i2 leaf node n4 p0 sample" transform="translate(18.2143 3.4493)"><path class="edge" d="M 0 0 V -3.4493 H -18.2143"/><circle class="sym" cx="0" cy="0" r="3"/><text class="lab" transform="translate(0 12)">4</text></g><g class="a9 node n6 p0" transform="translate(-18.2143 2.60093)"><g class="a6 i0 leaf node n0 p0 sample" transform="translate(-12.1429 0.848363)"><path class="edge" d="M 0 0 V -0.848363 H 12.1429"/><circle class="sym" cx="0" cy="0" r="3"/><text class="lab" transform="translate(0 12)">0</text></g><g class="a6 i1 leaf node n2 p0 sample" transform="translate(12.1429 0.848363)"><path class="edge" d="M 0 0 V -0.848363 H -12.1429"/><circle class="sym" cx="0" cy="0" r="3"/><text class="lab" transform="translate(0 12)">2</text></g><path class="edge" d="M 0 0 V -2.60093 H 18.2143"/><circle class="sym" cx="0" cy="0" r="3"/><text class="lab lft" transform="translate(-3 -6)">6</text></g><path class="edge" d="M 0 0 V -9.71179 H 27.3214"/><circle class="sym" cx="0" cy="0" r="3"/><text class="lab lft" transform="translate(-3 -6)">9</text></g><path class="edge" d="M 0 0 V -13.1182 H 31.875"/><circle class="sym" cx="0" cy="0" r="3"/><text class="lab lft" transform="translate(-3 -6)">10</text></g><circle class="sym" cx="0" cy="0" r="3"/><text class="lab" transform="translate(0 -10)">11</text></g></g></g><g class="treebox t3" transform="translate(590.0 30)"><g class="tree t3"><g class="node n11 p0 root" transform="translate(123.839 83.7207)"><g class="a11 i1 leaf node n3 p0 sample" transform="translate(31.875 26.2793)"><path class="edge" d="M 0 0 V -26.2793 H -31.875"/><circle class="sym" cx="0" cy="0" r="3"/><text class="lab" transform="translate(0 12)">3</text></g><g class="a11 node n10 p0" transform="translate(-31.875 13.1182)"><g class="a10 node n8 p0" transform="translate(-27.3214 10.2137)"><g class="a8 i2 leaf node n5 p0 sample" transform="translate(18.2143 2.94735)"><path class="edge" d="M 0 0 V -2.94735 H -18.2143"/><circle class="sym" cx="0" cy="0" r="3"/><text class="lab" transform="translate(0 12)">5</text></g><g class="a8 node n7 p0" transform="translate(-18.2143 1.37635)"><g class="a7 i0 leaf node n0 p0 sample" transform="translate(-12.1429 1.571)"><path class="edge" d="M 0 0 V -1.571 H 12.1429"/><circle class="sym" cx="0" cy="0" r="3"/><text class="lab" transform="translate(0 12)">0</text></g><g class="a7 i0 leaf node n1 p0 sample" transform="translate(12.1429 1.571)"><path class="edge" d="M 0 0 V -1.571 H -12.1429"/><circle class="sym" cx="0" cy="0" r="3"/><text class="lab" transform="translate(0 12)">1</text></g><path class="edge" d="M 0 0 V -1.37635 H 18.2143"/><circle class="sym" cx="0" cy="0" r="3"/><text class="lab lft" transform="translate(-3 -6)">7</text></g><path class="edge" d="M 0 0 V -10.2137 H 27.3214"/><circle class="sym" cx="0" cy="0" r="3"/><text class="lab lft" transform="translate(-3 -6)">8</text></g><g class="a10 node n9 p0" transform="translate(27.3214 9.71179)"><g class="a9 i2 leaf node n4 p0 sample" transform="translate(12.1429 3.4493)"><path class="edge" d="M 0 0 V -3.4493 H -12.1429"/><circle class="sym" cx="0" cy="0" r="3"/><text class="lab" transform="translate(0 12)">4</text></g><g class="a9 i1 leaf node n2 p0 sample" transform="translate(-12.1429 3.4493)"><path class="edge" d="M 0 0 V -3.4493 H 12.1429"/><circle class="sym" cx="0" cy="0" r="3"/><text class="lab" transform="translate(0 12)">2</text></g><path class="edge" d="M 0 0 V -9.71179 H -27.3214"/><circle class="sym" cx="0" cy="0" r="3"/><text class="lab rgt" transform="translate(3 -6)">9</text></g><path class="edge" d="M 0 0 V -13.1182 H 31.875"/><circle class="sym" cx="0" cy="0" r="3"/><text class="lab lft" transform="translate(-3 -6)">10</text></g><circle class="sym" cx="0" cy="0" r="3"/><text class="lab" transform="translate(0 -10)">11</text></g></g></g></g><g class="axis"><line stroke="black" x1="20" x2="780" y1="180" y2="180"/><line stroke="black" x1="20" x2="20" y1="180" y2="185"/><g transform="translate(20, 200)"><text font-size="14" font-weight="bold" text-anchor="middle">0</text></g><line stroke="black" x1="41.432" x2="41.432" y1="180" y2="185"/><g transform="translate(41.432, 200)"><text font-size="14" font-weight="bold" text-anchor="middle">141</text></g><line stroke="black" x1="138.864" x2="138.864" y1="180" y2="185"/><g transform="translate(138.864, 200)"><text font-size="14" font-weight="bold" text-anchor="middle">782</text></g><line stroke="black" x1="628.152" x2="628.152" y1="180" y2="185"/><g transform="translate(628.152, 200)"><text font-size="14" font-weight="bold" text-anchor="middle">4001</text></g><line stroke="black" x1="780.0" x2="780.0" y1="180" y2="185"/><g transform="translate(780.0, 200)"><text font-size="14" font-weight="bold" text-anchor="middle">5000</text></g></g></g></svg>